PathFileType	4	(X/Y/Z)	..\data\SUBJ01\static\static.trc
DataRate	CameraRate	NumFrames	NumMarkers	Units	OrigDataRate	OrigDataStartFrame	OrigNumFrames
100.000000	100.000000	4	33	mm	100.000000	10	82
Frame#	Time	LFHD			RFHD			LBHD			RBHD			C7			T10			CLAV			STRN			LSHO			LELB			LWRA			LWRB			LFIN			RSHO			RELB			RWRA			RWRB			RFIN			LASI			RASI			SACR			LTHI			LKNE			LTIB			LANK			LHEE			LTOE			RTHI			RKNE			RTIB			RANK			RHEE			RTOE			
		X1	Y1	Z1	X2	Y2	Z2	X3	Y3	Z3	X4	Y4	Z4	X5	Y5	Z5	X6	Y6	Z6	X7	Y7	Z7	X8	Y8	Z8	X9	Y9	Z9	X10	Y10	Z10	X11	Y11	Z11	X12	Y12	Z12	X13	Y13	Z13	X14	Y14	Z14	X15	Y15	Z15	X16	Y16	Z16	X17	Y17	Z17	X18	Y18	Z18	X19	Y19	Z19	X20	Y20	Z20	X21	Y21	Z21	X22	Y22	Z22	X23	Y23	Z23	X24	Y24	Z24	X25	Y25	Z25	X26	Y26	Z26	X27	Y27	Z27	X28	Y28	Z28	X29	Y29	Z29	X30	Y30	Z30	X31	Y31	Z31	X32	Y32	Z32	X33	Y33	Z33	

11	0.1	-130.1397857666016	1571.69873046875	-206.5802764892579	-159.6136016845703	1541.054931640625	-88.5784378051758	-269.4302368164063	1481	-247.9034423828126	-297.5731201171876	1456.277587890625	-120.4556503295899	-316.1582336425782	1368.986083984375	-175.1513366699219	-369.0130615234376	1144.218627929688	-182.76318359375	-164.2293090820313	1277.422607421875	-184.3645782470703	-96.96968841552737	1124.433471679688	-180.5150451660157	-239.8940582275391	1315.22412109375	-351.7692260742188	-158.1871337890625	1089.58935546875	-508.6028747558595	-48.86584091186525	878.0435180664065	-564.0689086914064	-47.80572128295899	912.0313720703127	-622.2096557617189	-19.00558853149414	808.8896484375002	-616.0545043945314	-230.4649047851563	1308.664306640625	-8.158275604248049	-201.5329589843751	1092.06103515625	176.0620269775391	-157.8238525390625	847.2913818359377	238.6266632080079	-157.0512084960938	896.082214355469	302.8064880371094	-127.9630966186524	789.1007080078127	290.9467468261719	-153.7052154541016	885.224792480469	-314.6971435546876	-158.0215759277344	888.485290527344	-32.75127029418946	-330.3699951171876	886.1797485351565	-172.6507873535157	-246.9802246093751	619.9209594726564	-383.1382141113282	-236.1862945556641	438.8982238769532	-301.7398681640626	-274.2094116210938	200.0393218994141	-331.7395019531251	-256.7221679687501	67.23889160156251	-270.2920837402344	-314.7891235351563	52.94657135009767	-228.9422912597657	-148.3682556152344	49.06678771972658	-244.1447296142579	-219.8789825439454	599.6430664062501	12.60728454589844	-225.9451293945313	446.1301574707032	-51.4093589782715	-246.7071380615235	189.9306335449219	-27.89996528625489	-268.8559570312501	67.87792205810548	-85.37780761718751	-317.0340576171876	59.15144729614259	-142.7088928222657	-154.9729156494141	47.76224899291993	-95.6671829223633	
12	0.11	-130.0742797851563	1571.753051757813	-206.6331787109376	-159.6604919433594	1541.078857421875	-88.54117584228517	-269.4579162597657	1480.9775390625	-247.8622436523438	-297.5125732421876	1456.284301757813	-120.3901977539063	-316.2409057617188	1368.993774414063	-175.0882568359375	-369.0096435546876	1144.23193359375	-182.741195678711	-164.1734924316407	1277.563232421875	-184.4997711181641	-96.81626892089847	1124.472900390625	-180.5526275634766	-239.8633117675782	1315.268188476563	-351.7351379394532	-158.1442260742188	1089.670532226563	-508.5292358398439	-48.77336502075197	878.070739746094	-563.9854736328126	-47.7363395690918	912.069030761719	-622.1394653320314	-18.6804256439209	808.9703369140627	-615.8452148437501	-230.3751678466797	1308.676879882813	-8.115908622741701	-201.3301849365235	1091.92041015625	175.9790802001953	-157.6528625488282	847.1834716796877	238.6171264648438	-156.9824371337891	895.9854125976565	302.7313842773438	-127.8740386962891	788.9998168945315	290.7787475585938	-153.7019195556641	885.2303466796877	-314.7476196289063	-157.9479370117188	888.507019042969	-32.83389282226563	-330.4288940429688	886.221130371094	-172.6091766357422	-247.1084442138672	619.9088745117189	-383.0095520019532	-236.1920471191407	438.8964843750001	-301.7579040527344	-274.2456359863282	200.0761413574219	-331.7162475585938	-256.7746276855469	67.19200134277345	-270.2443542480469	-314.7450866699219	52.94451141357423	-228.9193115234376	-148.3587188720703	49.09717559814455	-244.1394653320313	-219.776107788086	599.5965576171876	12.55968570709229	-225.8333892822266	446.0791320800782	-51.39956665039064	-246.6708984375001	189.8973541259766	-27.89809799194337	-268.7367553710938	67.78936767578126	-85.45240020751955	-317.0765686035157	59.24570465087892	-142.6727752685547	-154.9989318847657	47.74547576904298	-95.63750457763673	
13	0.12	-130.0602569580078	1571.743896484375	-206.7399291992188	-159.6499176025391	1541.064819335938	-88.55479431152345	-269.5333251953126	1480.951171875	-247.8097229003907	-297.5639343261719	1456.327880859375	-120.3053894042969	-316.1404418945313	1369.017700195313	-175.0605926513672	-369.0201110839844	1144.241455078125	-182.7544555664063	-164.2544097900391	1277.568237304688	-184.572998046875	-96.86728668212893	1124.51953125	-180.6610260009766	-240.0801544189454	1314.985229492188	-351.7489013671876	-158.1614990234375	1089.671630859375	-508.5713806152345	-48.73231506347658	878.1567993164065	-563.9403686523439	-47.57419967651368	912.1542968750002	-621.9035034179689	-18.49408340454102	809.0706176757815	-615.7566528320314	-230.3525543212891	1308.65283203125	-8.104627609252931	-201.2856597900391	1091.796997070313	175.923095703125	-157.6110229492188	847.074645996094	238.4625091552735	-156.8763732910157	895.807067871094	302.6675415039063	-127.7003402709961	788.8384399414065	290.6094970703126	-153.709228515625	885.1860351562502	-314.7095336914063	-157.9352264404297	888.4986572265627	-32.85674285888673	-330.3109130859376	886.1937255859377	-172.5833435058594	-247.0637512207032	619.9171142578126	-383.1622619628907	-236.1260528564454	439.0128784179689	-301.7625427246094	-274.3664245605469	200.0948181152344	-331.7130126953126	-256.7904052734376	67.18068695068361	-270.2643127441407	-314.7806091308594	52.96022796630861	-228.9396209716797	-148.3590850830078	49.10738372802736	-244.123275756836	-219.896957397461	599.7009887695314	12.64262676239014	-225.8705291748047	446.0664367675782	-51.47952270507814	-246.7360076904297	189.9000701904297	-27.89803504943848	-268.6256713867188	67.83074951171876	-85.39589691162111	-317.0453186035157	59.18360137939455	-142.7092742919922	-155.0208435058594	47.75095748901368	-95.62100219726564	
14	0.13	-130.067626953125	1571.788940429688	-206.7217712402344	-159.5052337646485	1541.103759765625	-88.67103576660158	-269.5768127441407	1480.94482421875	-247.8098602294922	-297.4841003417969	1456.2880859375	-120.2666320800782	-316.1868896484376	1368.993286132813	-174.9918518066407	-368.9450988769532	1144.169799804688	-182.6823120117188	-164.1394500732422	1277.625122070313	-184.5098114013672	-96.8781661987305	1124.538696289063	-180.6876983642578	-240.0438690185547	1315.301513671875	-351.7383422851563	-158.1719055175782	1089.73486328125	-508.5554809570314	-48.58115768432619	878.2083740234377	-563.9246826171876	-47.62914657592774	911.986022949219	-621.9315795898439	-18.22831916809082	809.179382324219	-615.5478515625001	-230.3187103271485	1308.624755859375	-8.051162719726564	-201.275619506836	1091.7548828125	175.9126129150391	-157.4542541503907	847.0727539062502	238.3801727294922	-156.6646575927735	895.6839599609377	302.5430603027344	-127.5670852661133	788.6546630859377	290.5146179199219	-153.6866455078125	885.2218017578127	-314.7866821289063	-157.7930145263672	888.5164794921877	-32.9430274963379	-330.2825927734376	886.254333496094	-172.5815887451172	-247.1141967773438	619.8900146484376	-383.0801086425782	-236.1744689941407	438.9072875976564	-301.7621765136719	-274.3753051757813	200.0009918212891	-331.7297363281251	-256.7720336914063	67.23472595214845	-270.2748413085938	-314.7864074707032	52.96310424804689	-228.9413604736329	-148.3600616455078	49.12052154541017	-244.1619567871094	-219.9285430908204	599.7547607421876	12.7555742263794	-225.8914947509766	446.1001281738282	-51.46014404296876	-246.6812286376954	189.9638061523438	-27.95729446411134	-268.6107177734376	67.78603363037111	-85.41964721679689	-317.0745239257813	59.22721481323244	-142.6728210449219	-154.9834594726563	47.7674789428711	-95.67116546630861	
